PathFileType	4	(X/Y/Z)	..\data\2015043\dynamic\2015043_C4_04.trc
DataRate	CameraRate	NumFrames	NumMarkers	Units	OrigDataRate	OrigDataStartFrame	OrigNumFrames
100.000000	100.000000	4	52	mm	100.000000	0	232
Frame#	Time	L_IAS			L_IPS			R_IPS			R_IAS			L_FTC			L_FLE			L_FME			L_FAX			L_TTC			L_FAL			L_TAM			L_FCC			L_FM1			L_FM2			L_FM5			R_FTC			R_FLE			R_FME			R_FAX			R_TTC			R_FAL			R_TAM			R_FCC			R_FM1			R_FM2			R_FM5			CV7			TV10			SXS			SJN			L_SIA			L_SRS			L_SAA			L_SAE			L_HLE			L_HME			L_UOA			L_RSP			L_UHE			L_HM2			L_HM5			R_SIA			R_SRS			R_SAA			R_SAE			R_HLE			R_HME			R_UOA			R_RSP			R_UHE			R_HM2			R_HM5			
		X1	Y1	Z1	X2	Y2	Z2	X3	Y3	Z3	X4	Y4	Z4	X5	Y5	Z5	X6	Y6	Z6	X7	Y7	Z7	X8	Y8	Z8	X9	Y9	Z9	X10	Y10	Z10	X11	Y11	Z11	X12	Y12	Z12	X13	Y13	Z13	X14	Y14	Z14	X15	Y15	Z15	X16	Y16	Z16	X17	Y17	Z17	X18	Y18	Z18	X19	Y19	Z19	X20	Y20	Z20	X21	Y21	Z21	X22	Y22	Z22	X23	Y23	Z23	X24	Y24	Z24	X25	Y25	Z25	X26	Y26	Z26	X27	Y27	Z27	X28	Y28	Z28	X29	Y29	Z29	X30	Y30	Z30	X31	Y31	Z31	X32	Y32	Z32	X33	Y33	Z33	X34	Y34	Z34	X35	Y35	Z35	X36	Y36	Z36	X37	Y37	Z37	X38	Y38	Z38	X39	Y39	Z39	X40	Y40	Z40	X41	Y41	Z41	X42	Y42	Z42	X43	Y43	Z43	X44	Y44	Z44	X45	Y45	Z45	X46	Y46	Z46	X47	Y47	Z47	X48	Y48	Z48	X49	Y49	Z49	X50	Y50	Z50	X51	Y51	Z51	X52	Y52	Z52	

1	0	-1216.976196289063	979.0537109375002	157.9518280029296	-1399.25830078125	989.9324340820315	218.6311950683593	-1402.387451171875	997.7630004882815	316.3038635253905	-1232.628051757813	983.7779541015627	402.4744873046874	-1291.106811523438	881.5513916015627	98.90242004394518	-1135.81201171875	485.3981933593751	110.6947174072264	-1115.336303710938	477.9710388183595	230.0245056152343	-1124.046264648438	417.1194458007814	107.2442398071288	-1055.933471679688	429.104217529297	150.2337036132811	-1007.319641113281	88.94851684570314	156.923843383789	-967.4280395507815	119.1936416625977	238.4937286376953	-1024.70458984375	26.51376152038575	212.2936553955078	-833.4158325195315	97.03730010986331	217.3130645751953	-841.673278808594	95.64995574951173	154.9271545410155	-879.6743774414065	57.25744628906251	120.3254318237304	-1345.517944335938	890.8538208007815	438.5520324707031	-1375.856689453125	472.3065795898439	387.0845947265624	-1351.19384765625	471.8009033203126	265.0198669433593	-1404.256958007813	409.466522216797	384.8365173339843	-1337.952880859375	385.1173400878907	329.8980407714843	-1528.489379882813	87.4707717895508	306.936798095703	-1483.724731445313	102.8640060424805	223.1917419433593	-1576.356323242188	45.92432403564454	252.0250854492186	-1371.265380859375	30.24023818969727	257.2567138671874	-1379.009765625	37.67298126220704	314.3043212890624	-1443.6162109375	25.10998725891114	361.312530517578	-1335.074462890625	1496.98046875	271.920928955078	-1408.42138671875	1272.273803710938	277.5691833496093	-1176.8232421875	1259.887084960938	276.8279418945311	-1224.024780273438	1412.6455078125	275.728546142578	-1434.852294921875	1297.885986328125	187.9836120605467	-1398.677856445313	1423.661376953125	184.0942382812499	-1347.34619140625	1424.745483398438	94.78319549560531	-1305.917602539063	1424.6640625	72.70502471923814	-1351.521362304688	1098.2001953125	-8.501881599426437	-1379.145751953125	1082.015380859375	72.83558654785141	-1390.736450195313	1065.365600585938	15.39423942565901	-1212.653564453125	866.3001708984377	36.25514984130845	-1256.684204101563	849.3176879882815	-24.45805931091325	-1167.131591796875	785.9691162109377	30.38051986694322	-1257.525634765625	777.101501464844	-19.46162986755387	-1432.842041015625	1307.387573242188	365.4067993164061	-1397.128662109375	1426.397094726563	358.5745849609374	-1358.403442382813	1430.430908203125	455.1643676757812	-1324.8525390625	1425.784423828125	489.6699218749999	-1324.420288085938	1090.736206054688	558.5689086914062	-1357.74169921875	1079.578002929688	493.5639343261718	-1355.376586914063	1054.208251953125	528.6871948242188	-1146.050170898438	888.855407714844	496.9833679199219	-1204.18408203125	861.4838867187502	547.7431030273438	-1095.703857421875	815.888122558594	493.618896484375	-1178.977783203125	791.398620605469	549.2583618164062	
2	0.01	-1208.203002929688	978.5046997070315	157.5438842773436	-1390.774658203125	989.3550415039065	217.2464752197264	-1394.408325195313	997.1021118164065	314.9046325683593	-1225.189208984375	982.9877929687502	402.0660400390624	-1281.99560546875	881.0411376953127	98.14015960693347	-1128.040771484375	484.6451110839845	110.8397521972655	-1107.49658203125	477.6745910644532	229.9677124023437	-1116.776123046875	416.058074951172	107.5964355468749	-1048.49462890625	428.0559082031251	150.5239105224608	-1002.399291992188	87.60828399658205	158.4175567626952	-961.625427246094	117.756820678711	239.6273803710937	-1019.695495605469	25.46570205688477	214.1450958251953	-827.7908325195315	94.44802093505861	216.8181915283203	-836.8733520507815	93.12053680419923	154.4318542480468	-875.6485595703127	55.09427642822267	120.5125350952148	-1338.553833007813	890.1463012695315	437.4591369628906	-1370.681396484375	472.0549316406251	386.9253845214843	-1345.350463867188	471.0606994628907	264.955352783203	-1399.681030273438	409.5430297851564	384.6533203124999	-1333.5380859375	384.3264465332032	330.0402221679686	-1527.772094726563	88.91986083984376	307.1038208007811	-1482.89404296875	103.7958068847657	223.4335021972655	-1576.174682617188	47.95304870605469	252.2828521728514	-1371.352172851563	30.33245086669923	257.3513793945311	-1378.951782226563	37.63764190673829	314.3786621093749	-1443.627807617188	25.10507011413575	361.2965393066405	-1327.233276367188	1496.212646484375	270.6432800292968	-1400.273071289063	1271.51708984375	276.4594421386718	-1168.757446289063	1259.367797851563	276.3033142089843	-1216.013671875	1412.09130859375	274.7267150878905	-1426.72607421875	1296.8681640625	187.1219329833983	-1390.625	1422.686157226563	182.9391937255858	-1339.288696289063	1423.656494140625	93.64521789550766	-1297.94970703125	1423.512573242188	71.54814910888658	-1344.268432617188	1096.737182617188	-8.208734512329269	-1371.876220703125	1081.044311523438	73.19162750244125	-1383.58251953125	1064.3232421875	15.86468887329085	-1207.619750976563	863.6391601562502	36.76545715332017	-1251.649780273438	847.1336669921877	-24.14234542846696	-1163.068481445313	782.7544555664065	31.14584159851061	-1253.324340820313	774.9194946289065	-19.10600662231461	-1424.986328125	1306.732788085938	364.2939453124999	-1389.350219726563	1425.813110351563	357.3258056640624	-1350.751953125	1430.068603515625	453.9518737792968	-1317.277709960938	1425.508178710938	488.5206298828124	-1317.174438476563	1090.44873046875	557.5343627929688	-1350.461303710938	1079.318969726563	492.4834594726562	-1348.240234375	1053.997314453125	527.60791015625	-1139.1162109375	888.2568359375002	496.2110595703125	-1197.35009765625	861.022155761719	546.9588012695312	-1088.923095703125	815.191345214844	492.9249572753906	-1172.3076171875	790.8833007812502	548.5357666015625	
3	0.02	-1199.251586914063	978.1180419921877	157.1165313720702	-1382.119750976563	988.904479980469	215.8433227539061	-1386.256225585938	996.532165527344	313.4796142578124	-1217.589111328125	982.269958496094	401.6284484863281	-1272.613891601563	880.727233886719	97.28800201416003	-1119.830444335938	484.156463623047	110.8720245361327	-1099.418701171875	477.5290832519532	229.8028564453124	-1109.180786132813	415.2068481445314	107.7863082885741	-1040.839477539063	426.9969787597657	150.8434600830077	-998.5515136718752	86.08932495117189	159.7208709716796	-956.9246826171877	115.8800201416016	240.6904754638671	-1016.194396972656	24.32469558715821	215.6840820312499	-823.3252563476565	90.74863433837892	216.2448120117187	-833.1909790039065	89.63956451416017	153.843276977539	-872.9541625976565	52.24081802368165	120.5447616577148	-1331.418823242188	889.5108032226565	436.2993469238281	-1365.46435546875	471.9269104003907	386.7779235839843	-1339.52783203125	470.4195861816407	264.8778686523436	-1395.05517578125	409.7501831054689	384.4934692382812	-1329.107421875	383.6673278808594	330.1954956054686	-1527.011352539063	90.53836822509767	307.3765258789061	-1482.021240234375	104.8857192993164	223.7594451904296	-1575.972778320313	50.2097625732422	252.6490936279295	-1371.436401367188	30.45733642578126	257.4640502929686	-1378.882568359375	37.61613082885743	314.4650878906249	-1443.622924804688	25.12518692016602	361.2828674316405	-1319.318725585938	1495.553344726563	269.2902526855468	-1392.002197265625	1270.845336914063	275.297637939453	-1160.541015625	1258.987915039063	275.7124023437499	-1207.918334960938	1411.659545898438	273.6635131835936	-1418.47607421875	1295.936279296875	186.1775665283202	-1382.466064453125	1421.799072265625	181.7033386230467	-1331.117797851563	1422.672973632813	92.44223785400376	-1289.902221679688	1422.47021484375	70.30970001220689	-1336.845825195313	1095.39013671875	-7.992010116577314	-1364.498413085938	1080.215576171875	73.50160980224594	-1376.265625	1063.405883789063	16.25701713561995	-1202.52294921875	861.0561523437502	37.18415069580064	-1246.537231445313	845.0609130859377	-23.93676376342789	-1159.01513671875	779.5889892578127	31.83373832702623	-1249.093872070313	772.8605957031252	-18.87653350830094	-1417.018432617188	1306.164794921875	363.0809326171874	-1381.492431640625	1425.326049804688	355.9954833984374	-1343.035034179688	1429.8056640625	452.6581115722656	-1309.635498046875	1425.337768554688	487.2938232421874	-1309.9375	1090.281982421875	556.4315185546875	-1343.197387695313	1079.190185546875	491.3409423828124	-1341.113891601563	1053.921630859375	526.471923828125	-1132.313232421875	887.6622314453127	495.4151000976562	-1190.672973632813	860.606384277344	546.1458740234375	-1082.323486328125	814.469421386719	492.2156066894531	-1165.838500976563	790.3958740234377	547.788818359375	
4	0.03	-1190.113037109375	977.9132080078127	156.6715087890624	-1373.279174804688	988.597106933594	214.4288482666014	-1377.914428710938	996.061218261719	312.0364685058593	-1209.808227539063	981.6294555664065	401.1622924804687	-1262.95654296875	880.6289672851565	96.34560394287097	-1111.240844726563	483.9155883789064	110.8026275634764	-1091.224609375	477.5017395019532	229.5543518066405	-1101.263305664063	414.573699951172	107.8169860839843	-1033.004516601563	425.968719482422	151.2189941406249	-995.4858398437502	84.48496246337892	160.815216064453	-953.1182250976565	113.6848831176758	241.6881256103515	-1013.906982421875	23.18908309936524	216.8841857910156	-819.7926025390627	86.15713500976564	215.7191925048828	-830.3302001953127	85.41066741943361	153.2874450683593	-871.2438964843752	48.87818908691408	120.4980010986327	-1324.085205078125	888.951843261719	435.0717773437499	-1360.197875976563	471.9368286132814	386.6358032226562	-1333.72705078125	469.900115966797	264.7753906249999	-1390.373779296875	410.1037902832032	384.3519592285156	-1324.65380859375	383.1534729003907	330.3507690429686	-1526.20166015625	92.33730316162111	307.7598266601561	-1481.09765625	106.1472244262696	224.1711883544921	-1575.739501953125	52.70596313476564	253.1252593994139	-1371.513427734375	30.61606407165528	257.5977478027343	-1378.798217773438	37.61032485961915	314.5675048828124	-1443.594360351563	25.17831993103028	361.2694396972655	-1311.332641601563	1495.017456054688	267.8619079589843	-1383.607543945313	1270.268920898438	274.0909423828124	-1152.16552734375	1258.765991210938	275.0558471679687	-1199.740966796875	1411.366088867188	272.5404357910155	-1410.10302734375	1295.099243164063	185.1553802490233	-1374.202270507813	1421.01171875	180.3895874023436	-1322.835815429688	1421.8046875	91.1753768920897	-1281.767700195313	1421.545776367188	68.99533081054673	-1329.249633789063	1094.17333984375	-7.862267017364666	-1357.018676757813	1079.5400390625	73.75611114501937	-1368.783081054688	1062.624755859375	16.55744171142562	-1197.343017578125	858.5795898437502	37.50291824340806	-1241.324584960938	843.1198730468752	-23.8461704254152	-1154.943115234375	776.5061035156252	32.44199371337877	-1244.806884765625	770.9462890625002	-18.77465820312516	-1408.935424804688	1305.695678710938	361.7680664062499	-1373.557495117188	1424.947021484375	354.5855102539061	-1335.255004882813	1429.652709960938	451.2845764160156	-1301.927978515625	1425.285400390625	485.9904174804687	-1302.7060546875	1090.250244140625	555.2566528320312	-1335.94287109375	1079.20458984375	490.1319580078124	-1333.9794921875	1053.9912109375	525.2769775390625	-1125.641723632813	887.083190917969	494.5967407226562	-1184.14892578125	860.2507934570315	545.3096923828125	-1075.904541015625	813.733093261719	491.4941101074219	-1159.563598632813	789.952087402344	547.0274658203125	
